<svg width="35" height="32" viewBox="0 0 35 32" fill="none" xmlns="http://www.w3.org/2000/svg">
<g filter="url(#filter0_d_54_520)">
<path d="M17.5601 26.0001C25.0491 26.0001 31.1201 21.2991 31.1201 15.5001C31.1201 9.70121 25.0491 5.00024 17.5601 5.00024C10.071 5.00024 4 9.70121 4 15.5001C4 21.2991 10.071 26.0001 17.5601 26.0001Z" fill="#FFC800"/>
</g>
<path d="M17.5615 24.898C24.2643 24.898 29.6981 20.6905 29.6981 15.5003C29.6981 10.31 24.2643 6.10254 17.5615 6.10254C10.8586 6.10254 5.4248 10.31 5.4248 15.5003C5.4248 20.6905 10.8586 24.898 17.5615 24.898Z" stroke="#FEE333" stroke-width="10.497"/>
<path opacity="0.2" d="M31.1211 15.4999C31.1211 9.70097 25.0502 5 17.5611 5C13.8166 5 10.4265 6.17525 7.97266 8.07535L27.1496 22.9244C28.4733 22.0191 31.1211 19.2667 31.1211 15.4999Z" fill="white"/>
<path fill-rule="evenodd" clip-rule="evenodd" d="M19.122 10.3027C19.0149 9.48763 17.6633 9.20722 17.0442 9.87168L11.9492 15.3406C11.4779 15.8463 11.8064 16.5608 12.5844 16.7223L15.4829 17.3236L15.911 20.5837C16.0181 21.3988 17.3696 21.6793 17.9887 21.0148L23.0838 15.5459C23.5551 15.0401 23.2264 14.3256 22.4486 14.1642L19.55 13.5628L19.122 10.3027Z" fill="#F89701"/>
<path d="M12.949 16.0637C12.6854 16.0086 12.66 15.7268 12.9111 15.6438L14.9255 14.9783C15.1074 14.9182 15.3115 15.0148 15.3253 15.1676L15.4253 16.2751C15.4391 16.4278 15.2544 16.5455 15.0634 16.5056L12.949 16.0637Z" fill="#E27800"/>
<path d="M22.1807 14.7135C22.4443 14.7686 22.4698 15.0504 22.2187 15.1333L20.2042 15.7989C20.0222 15.859 19.8183 15.7623 19.8044 15.6096L19.7043 14.5021C19.6905 14.3493 19.8755 14.2316 20.0661 14.2715L22.1807 14.7135Z" fill="#FFC700"/>
<path d="M24.6985 8.69035L23.2776 9.79059C23.0813 9.9425 23.0813 10.1888 23.2776 10.3407L24.6985 11.441C24.8946 11.5929 25.2127 11.5929 25.409 11.441L26.8299 10.3407C27.026 10.1888 27.026 9.9425 26.8299 9.79059L25.409 8.69035C25.2127 8.53844 24.8946 8.53844 24.6985 8.69035Z" fill="#FFF8D2"/>
<defs>
<filter id="filter0_d_54_520" x="4" y="5.00024" width="27.1201" height="26.2629" filterUnits="userSpaceOnUse" color-interpolation-filters="sRGB">
<feFlood flood-opacity="0" result="BackgroundImageFix"/>
<feColorMatrix in="SourceAlpha" type="matrix" values="0 0 0 0 0 0 0 0 0 0 0 0 0 0 0 0 0 0 127 0" result="hardAlpha"/>
<feOffset dy="5.26316"/>
<feColorMatrix type="matrix" values="0 0 0 0 1 0 0 0 0 0.756863 0 0 0 0 0 0 0 0 1 0"/>
<feBlend mode="normal" in2="BackgroundImageFix" result="effect1_dropShadow_54_520"/>
<feBlend mode="normal" in="SourceGraphic" in2="effect1_dropShadow_54_520" result="shape"/>
</filter>
</defs>
</svg>
