<svg width="379" height="261" viewBox="0 0 379 261" fill="none" xmlns="http://www.w3.org/2000/svg">
<g clip-path="url(#clip0_44_469)">
<g filter="url(#filter0_d_44_469)">
<path d="M304.349 210.664C344.52 210.664 377.086 178.947 377.086 139.821C377.086 100.696 344.52 68.9785 304.349 68.9785C264.177 68.9785 231.611 100.696 231.611 139.821C231.611 178.947 264.177 210.664 304.349 210.664Z" fill="#1CB0F6"/>
</g>
<path d="M304.353 203.11C340.241 203.11 369.334 174.775 369.334 139.822C369.334 104.869 340.241 76.5339 304.353 76.5339C268.465 76.5339 239.373 104.869 239.373 139.822C239.373 174.775 268.465 203.11 304.353 203.11Z" stroke="#46C4FF" stroke-width="8.10468"/>
<path opacity="0.2" d="M377.091 139.821C377.091 100.696 344.526 68.9785 304.354 68.9785C284.269 68.9785 266.084 76.9079 252.921 89.7278L355.787 189.915C362.888 183.806 377.091 165.236 377.091 139.821Z" fill="white"/>
<g filter="url(#filter1_d_44_469)">
<path d="M304.203 212.435C344.877 212.435 377.85 180.321 377.85 140.707C377.85 101.092 344.877 68.9785 304.203 68.9785C263.529 68.9785 230.557 101.092 230.557 140.707C230.557 180.321 263.529 212.435 304.203 212.435Z" fill="#78C900"/>
</g>
<g filter="url(#filter2_d_44_469)">
<path d="M304.203 212.435C344.877 212.435 377.85 180.321 377.85 140.707C377.85 101.092 344.877 68.9785 304.203 68.9785C263.529 68.9785 230.557 101.092 230.557 140.707C230.557 180.321 263.529 212.435 304.203 212.435Z" fill="#78C900"/>
</g>
<path d="M304.207 205.104C340.724 205.104 370.327 176.272 370.327 140.706C370.327 105.14 340.724 76.3083 304.207 76.3083C267.689 76.3083 238.086 105.14 238.086 140.706C238.086 176.272 267.689 205.104 304.207 205.104Z" stroke="#87E003" stroke-width="7.86408"/>
<path opacity="0.15" d="M377.855 140.707C377.855 101.092 344.882 68.9785 304.208 68.9785C283.872 68.9785 265.46 77.0071 252.132 89.9873L356.284 191.427C363.474 185.242 377.855 166.439 377.855 140.707Z" fill="white"/>
<g filter="url(#filter3_d_44_469)">
<path d="M72.7374 210.664C112.909 210.664 145.475 178.947 145.475 139.821C145.475 100.696 112.909 68.9785 72.7374 68.9785C32.5656 68.9785 0 100.696 0 139.821C0 178.947 32.5656 210.664 72.7374 210.664Z" fill="#1CB0F6"/>
</g>
<path d="M72.7458 203.11C108.634 203.11 137.727 174.775 137.727 139.822C137.727 104.869 108.634 76.5339 72.7458 76.5339C36.858 76.5339 7.76514 104.869 7.76514 139.822C7.76514 174.775 36.858 203.11 72.7458 203.11Z" stroke="#46C4FF" stroke-width="8.10468"/>
<path opacity="0.2" d="M145.48 139.821C145.48 100.696 112.914 68.9785 72.7425 68.9785C52.6567 68.9785 34.4724 76.9079 21.3096 89.7278L124.176 189.915C131.277 183.806 145.48 165.236 145.48 139.821Z" fill="white"/>
<path opacity="0.3" d="M116.546 4.37993L108.205 12.5037C105.721 14.923 105.721 18.8455 108.205 21.2649L116.546 29.3886C119.03 31.808 123.058 31.8079 125.542 29.3886L133.883 21.2649C136.367 18.8455 136.367 14.923 133.883 12.5037L125.542 4.37993C123.058 1.9606 119.03 1.9606 116.546 4.37993Z" fill="#FBE56D"/>
<path opacity="0.3" d="M262.461 235.228L256.131 241.393C253.84 243.625 253.84 247.243 256.131 249.475L262.461 255.64C264.753 257.871 268.468 257.871 270.759 255.64L277.089 249.475C279.38 247.243 279.38 243.625 277.089 241.393L270.759 235.228C268.468 232.996 264.753 232.996 262.461 235.228Z" fill="#A5ED6E"/>
<path opacity="0.3" d="M82.3312 32.5005L77.6472 37.0625C75.7842 38.877 75.7842 41.8188 77.6472 43.6333L82.3312 48.1953C84.1942 50.0098 87.2147 50.0098 89.0778 48.1953L93.7617 43.6333C95.6247 41.8188 95.6247 38.877 93.7617 37.0625L89.0777 32.5005C87.2147 30.686 84.1942 30.686 82.3312 32.5005Z" fill="#84D8FF"/>
<mask id="mask0_44_469" style="mask-type:luminance" maskUnits="userSpaceOnUse" x="87" y="37" width="202" height="197">
<path d="M288.078 37.2856H87.0933V233.036H288.078V37.2856Z" fill="white"/>
</mask>
<g mask="url(#mask0_44_469)">
<g filter="url(#filter4_d_44_469)">
<path d="M187.584 223.714C240.441 223.714 283.29 181.981 283.29 130.501C283.29 79.0203 240.441 37.2874 187.584 37.2874C134.727 37.2874 91.8784 79.0203 91.8784 130.501C91.8784 181.981 134.727 223.714 187.584 223.714Z" fill="#FFC800"/>
</g>
<path d="M187.595 213.93C234.903 213.93 273.254 176.578 273.254 130.502C273.254 84.4254 234.903 47.0732 187.595 47.0732C140.286 47.0732 101.935 84.4254 101.935 130.502C101.935 176.578 140.286 213.93 187.595 213.93Z" stroke="#FEE333" stroke-width="10.497"/>
<path opacity="0.2" d="M283.297 130.499C283.297 79.0186 240.449 37.2856 187.591 37.2856C161.163 37.2856 137.236 47.7189 119.917 64.5872L255.266 196.41C264.609 188.373 283.297 163.939 283.297 130.499Z" fill="white"/>
<path fill-rule="evenodd" clip-rule="evenodd" d="M198.608 84.3599C197.852 77.1237 188.313 74.6343 183.944 80.5331L147.983 129.083C144.657 133.573 146.976 139.916 152.467 141.349L172.924 146.688L175.946 175.63C176.701 182.866 186.24 185.355 190.609 179.456L226.57 130.906C229.897 126.416 227.577 120.073 222.087 118.64L201.629 113.301L198.608 84.3599Z" fill="#F89701"/>
<path d="M155.04 135.502C153.179 135.013 153 132.511 154.772 131.775L168.99 125.867C170.273 125.333 171.714 126.191 171.811 127.547L172.517 137.379C172.615 138.735 171.311 139.78 169.963 139.426L155.04 135.502Z" fill="#E27800"/>
<path d="M220.199 123.517C222.059 124.006 222.239 126.508 220.466 127.244L206.248 133.153C204.964 133.686 203.524 132.828 203.427 131.472L202.72 121.64C202.623 120.284 203.928 119.239 205.274 119.593L220.199 123.517Z" fill="#FFC700"/>
<path d="M237.968 70.0464L227.94 79.8137C226.554 81.1624 226.554 83.3488 227.94 84.6974L237.968 94.465C239.352 95.8136 241.597 95.8136 242.983 94.465L253.011 84.6974C254.395 83.3488 254.395 81.1624 253.011 79.8137L242.983 70.0464C241.597 68.6978 239.352 68.6978 237.968 70.0464Z" fill="#FFF8D2"/>
</g>
</g>
<defs>
<filter id="filter0_d_44_469" x="231.611" y="68.9785" width="145.475" height="145.686" filterUnits="userSpaceOnUse" color-interpolation-filters="sRGB">
<feFlood flood-opacity="0" result="BackgroundImageFix"/>
<feColorMatrix in="SourceAlpha" type="matrix" values="0 0 0 0 0 0 0 0 0 0 0 0 0 0 0 0 0 0 127 0" result="hardAlpha"/>
<feOffset dy="4"/>
<feColorMatrix type="matrix" values="0 0 0 0 0.121569 0 0 0 0 0.615686 0 0 0 0 0.827451 0 0 0 1 0"/>
<feBlend mode="normal" in2="BackgroundImageFix" result="effect1_dropShadow_44_469"/>
<feBlend mode="normal" in="SourceGraphic" in2="effect1_dropShadow_44_469" result="shape"/>
</filter>
<filter id="filter1_d_44_469" x="230.557" y="68.9785" width="147.293" height="147.507" filterUnits="userSpaceOnUse" color-interpolation-filters="sRGB">
<feFlood flood-opacity="0" result="BackgroundImageFix"/>
<feColorMatrix in="SourceAlpha" type="matrix" values="0 0 0 0 0 0 0 0 0 0 0 0 0 0 0 0 0 0 127 0" result="hardAlpha"/>
<feOffset dy="4.05"/>
<feColorMatrix type="matrix" values="0 0 0 0 1 0 0 0 0 1 0 0 0 0 1 0 0 0 1 0"/>
<feBlend mode="normal" in2="BackgroundImageFix" result="effect1_dropShadow_44_469"/>
<feBlend mode="normal" in="SourceGraphic" in2="effect1_dropShadow_44_469" result="shape"/>
</filter>
<filter id="filter2_d_44_469" x="230.557" y="68.9785" width="147.293" height="148.175" filterUnits="userSpaceOnUse" color-interpolation-filters="sRGB">
<feFlood flood-opacity="0" result="BackgroundImageFix"/>
<feColorMatrix in="SourceAlpha" type="matrix" values="0 0 0 0 0 0 0 0 0 0 0 0 0 0 0 0 0 0 127 0" result="hardAlpha"/>
<feOffset dy="4.71845"/>
<feColorMatrix type="matrix" values="0 0 0 0 0.458824 0 0 0 0 0.694118 0 0 0 0 0.121569 0 0 0 1 0"/>
<feBlend mode="normal" in2="BackgroundImageFix" result="effect1_dropShadow_44_469"/>
<feBlend mode="normal" in="SourceGraphic" in2="effect1_dropShadow_44_469" result="shape"/>
</filter>
<filter id="filter3_d_44_469" x="0" y="68.9785" width="145.475" height="145.686" filterUnits="userSpaceOnUse" color-interpolation-filters="sRGB">
<feFlood flood-opacity="0" result="BackgroundImageFix"/>
<feColorMatrix in="SourceAlpha" type="matrix" values="0 0 0 0 0 0 0 0 0 0 0 0 0 0 0 0 0 0 127 0" result="hardAlpha"/>
<feOffset dy="4"/>
<feColorMatrix type="matrix" values="0 0 0 0 0.121569 0 0 0 0 0.615686 0 0 0 0 0.827451 0 0 0 1 0"/>
<feBlend mode="normal" in2="BackgroundImageFix" result="effect1_dropShadow_44_469"/>
<feBlend mode="normal" in="SourceGraphic" in2="effect1_dropShadow_44_469" result="shape"/>
</filter>
<filter id="filter4_d_44_469" x="91.8784" y="37.2874" width="191.412" height="191.689" filterUnits="userSpaceOnUse" color-interpolation-filters="sRGB">
<feFlood flood-opacity="0" result="BackgroundImageFix"/>
<feColorMatrix in="SourceAlpha" type="matrix" values="0 0 0 0 0 0 0 0 0 0 0 0 0 0 0 0 0 0 127 0" result="hardAlpha"/>
<feOffset dy="5.26316"/>
<feColorMatrix type="matrix" values="0 0 0 0 1 0 0 0 0 0.756863 0 0 0 0 0 0 0 0 1 0"/>
<feBlend mode="normal" in2="BackgroundImageFix" result="effect1_dropShadow_44_469"/>
<feBlend mode="normal" in="SourceGraphic" in2="effect1_dropShadow_44_469" result="shape"/>
</filter>
<clipPath id="clip0_44_469">
<rect width="379" height="261" fill="white"/>
</clipPath>
</defs>
</svg>
